# xmcd
#
# Track frame offsets:
#        9465
#        20622
#        39704
#
# Disc length: 804 seconds
#
# Revision: 10
# Processed by: cddbd v1.5.2PL0 Copyright (c) Steve Scherf et al.
# Submitted via: ExactAudioCopy v1.0b1
#
DISCID=2602a603
DTITLE=Die Ärzte / Jazz ist anders (Bonus CD)
DYEAR=2007
DGENRE=Punk Rock
TTITLE0=Wir sind die Besten
TTITLE1=Wir waren die Besten
TTITLE2=Wir sind die Lustigsten
EXTD=Year: 2007
EXTT0=
EXTT1=
EXTT2=
PLAYORDER=
.
